# xmcd
#
# Track frame offsets:
#	150
#	12159
#	25467
#	36578
#	46425
#	55386
#	68183
#	80452
#	90152
#	102226
#	112525
#	124925
#	136353
#	149197
#	160983
#	170888
#	182748
#
# Disc length: 2656 seconds
# Revision: 0
# Processed by: cddbd v1.5.2PL0 Copyright (c) Steve Scherf et al.
# Submitted via: dBpowerAMP V12.0
#
DISCID=f10a5e11
DTITLE=Various Artist - Roots of Funk [CD 6)
DYEAR=2011
DGENRE=Funk
TTITLE0=Big Mama Thornton - I Smell a Rat
TTITLE1=Big Maybelle - I've Got a Feelin'
TTITLE2=Sugarpie Desanto - Going Back to Where I Belong
TTITLE3=Donna Hightower - Every Day and Every Night
TTITLE4=Helen Humes - Hey, Hey Baby
TTITLE5=Big Mama Thornton - Hound Dog
TTITLE6=Big Maybelle - Jinny Mule
TTITLE7=Donna Hightower - He's My Baby
TTITLE8=Helen Humes - I Ain't in the Mood
TTITLE9=Linda Peters - You Won't Touble Me No More
TTITLE10=Sugarpie Desanto - Can't Let You Go
TTITLE11=Zola Taylor - Make Love to Me
TTITLE12=Myra Taylor - The Spider and the Fly
TTITLE13=Big Maybelle - Don't Leave Poor Me
TTITLE14=Dolly Cooper - My Man
TTITLE15=Linda Peters - One More Chance
TTITLE16=Katie Nell Nubin - Where's Adam?
EXTD=
EXTT0=
EXTT1=
EXTT2=
EXTT3=
EXTT4=
EXTT5=
EXTT6=
EXTT7=
EXTT8=
EXTT9=
EXTT10=
EXTT11=
EXTT12=
EXTT13=
EXTT14=
EXTT15=
EXTT16=
PLAYORDER=
